<svg width="71" height="71" viewBox="0 0 71 71" fill="none" xmlns="http://www.w3.org/2000/svg">
<path fill-rule="evenodd" clip-rule="evenodd" d="M20.5606 1.24526C14.8579 1.50359 9.91623 2.89774 5.9247 6.87088C1.92004 10.8668 0.543405 15.8286 0.285068 21.4709C0.124811 24.9921 -0.813084 51.6008 1.90602 58.5795C3.73978 63.2864 7.35037 66.9075 12.1011 68.7457C14.3176 69.6074 16.8484 70.1924 20.5606 70.3623C51.5987 71.7669 63.1048 71.0015 67.9563 58.5795C68.8171 56.3683 69.4099 53.8401 69.5737 50.1367C70.9924 19.0197 69.3434 12.2741 63.9341 6.87088C59.6431 2.59124 54.5963 -0.321405 20.5606 1.24526ZM20.8461 64.1044C17.4474 63.952 15.604 63.3845 14.3736 62.909C11.2788 61.7066 8.95381 59.3904 7.75845 56.314C5.68825 51.0115 6.37482 25.8284 6.5596 21.7537C6.74087 17.7613 7.54916 14.1148 10.3655 11.2985C13.8508 7.82103 18.3546 6.11776 49.0162 7.50139C53.0174 7.68267 56.6735 8.49008 59.4968 11.2985C62.9822 14.776 64.7108 19.3131 63.3027 49.8573C63.1494 53.2472 62.5811 55.0862 62.1038 56.314C58.9495 64.3969 51.6924 65.5213 20.8461 64.1044ZM49.3542 17.2429C49.3542 19.5452 51.2256 21.4166 53.5367 21.4166C55.8477 21.4166 57.7226 19.5452 57.7226 17.2429C57.7226 14.9406 55.8477 13.071 53.5367 13.071C51.2256 13.071 49.3542 14.9424 49.3542 17.2429ZM17.0332 35.802C17.0332 45.6626 25.046 53.657 34.9311 53.657C44.8163 53.657 52.8291 45.6626 52.8291 35.802C52.8291 25.9414 44.8163 17.9522 34.9311 17.9522C25.046 17.9522 17.0332 25.9414 17.0332 35.802ZM23.3139 35.802C23.3139 29.4049 28.5139 24.2145 34.9311 24.2145C41.3484 24.2145 46.5484 29.4058 46.5484 35.802C46.5484 42.1983 41.3484 47.3948 34.9311 47.3948C28.5139 47.3948 23.3139 42.2035 23.3139 35.802Z" fill="black"/>
</svg>
