<svg width="75" height="75" viewBox="0 0 75 75" fill="none" xmlns="http://www.w3.org/2000/svg">
<path fill-rule="evenodd" clip-rule="evenodd" d="M18.6809 23.4666V75H0.000937512V23.4666H18.6809ZM46.84 23.3719V26.4084C49.5672 24.6488 52.7116 23.625 57.4798 23.625C73.0106 23.625 75 35.6822 75 46.1859V74.9981H56.2263V47.6222C56.2263 43.0181 54.5791 42.1453 51.5331 42.1453C48.4872 42.1453 46.84 43.065 46.84 47.6222V74.9981H28.0663V23.3719H46.84ZM9.33949 0C14.493 0 18.679 4.19156 18.679 9.33938C18.679 14.4872 14.4921 18.6788 9.33855 18.6788C4.18505 18.6788 0 14.4881 0 9.33938C0 4.19063 4.19162 0 9.33949 0Z" fill="black"/>
</svg>
