<svg width="275" height="77" viewBox="0 0 275 77" fill="none" xmlns="http://www.w3.org/2000/svg">
<path d="M224.234 0H273.799C274.41 0 274.907 0.496982 274.907 1.10865V50.8833C274.907 51.17 274.793 51.4567 274.582 51.667L251.205 75.4074C250.517 76.1147 249.313 75.6177 249.313 74.6237L249.255 52.833C249.255 52.2213 248.758 51.7243 248.147 51.7243L224.234 51.7817C223.622 51.7817 223.125 51.2847 223.125 50.673V1.10865C223.125 0.496982 223.622 0 224.234 0Z" fill="#6CDCE3"/>
<path d="M33.4123 51.9346V75.7515H28.2704V59.4467L18.7131 75.7515H15.1578L5.56219 59.4467V75.7515H0.439453V51.9346H5.98271L16.9737 70.6096L27.9264 51.9346H33.4314H33.4123Z" fill="black" stroke="black" stroke-width="0.75" stroke-miterlimit="10"/>
<path d="M46.4107 74.4326C43.964 73.4004 42.0334 71.9477 40.5998 70.0744C39.1662 68.2203 38.459 66.1177 38.459 63.7857C38.459 61.4537 39.1662 59.3702 40.5998 57.5161C42.0334 55.662 43.964 54.2284 46.4107 53.1771C48.8574 52.1449 51.5334 51.6096 54.458 51.6096C57.3825 51.6096 60.0968 52.1257 62.5435 53.1771C64.9902 54.2092 66.9208 55.662 68.3352 57.5161C69.7497 59.3702 70.457 61.4537 70.457 63.7857C70.457 66.1177 69.7497 68.2203 68.3352 70.0744C66.9208 71.9286 64.9902 73.3813 62.5435 74.4326C60.0968 75.4648 57.4016 76 54.458 76C51.5143 76 48.8574 75.4839 46.4107 74.4326ZM60.0012 71.508C61.626 70.7817 62.8876 69.7686 63.8051 68.4306C64.7226 67.0925 65.1813 65.5443 65.1813 63.7857C65.1813 62.0272 64.7226 60.4789 63.8051 59.16C62.8876 57.841 61.626 56.828 60.0012 56.1016C58.3765 55.3944 56.5224 55.0312 54.458 55.0312C52.3936 55.0312 50.5395 55.3944 48.9147 56.1016C47.29 56.8088 46.0284 57.8219 45.1109 59.16C44.1934 60.4789 43.7346 62.0272 43.7346 63.7857C43.7346 65.5443 44.1934 67.0925 45.1109 68.4306C46.0284 69.7686 47.29 70.8008 48.9147 71.508C50.5395 72.2344 52.3936 72.5785 54.458 72.5785C56.5224 72.5785 58.3765 72.2153 60.0012 71.508Z" fill="black" stroke="black" stroke-width="0.75" stroke-miterlimit="10"/>
<path d="M100.524 51.9346V75.7515H95.3822V65.334H80.6448V75.7515H75.5029V51.9346H80.6448V62.1418H95.3822V51.9346H100.524Z" fill="black" stroke="black" stroke-width="0.75" stroke-miterlimit="10"/>
<path d="M126.157 70.8772H113.044L110.789 75.7515H105.417L116.638 51.8963H122.582L133.803 75.7515H128.393L126.138 70.8772H126.157ZM124.723 67.6851L119.639 56.6177L114.497 67.6851H124.723Z" fill="black" stroke="black" stroke-width="0.75" stroke-miterlimit="10"/>
<path d="M143.322 75.1398C141.64 74.5855 140.321 73.7827 139.365 72.7505C138.41 71.7183 137.932 70.5141 137.932 69.1569H143.437C143.551 70.1891 144.087 71.0302 145.042 71.6992C145.998 72.3682 147.317 72.6932 149.037 72.6932C150.758 72.6932 152.191 72.3682 153.185 71.7183C154.179 71.0684 154.676 70.2274 154.676 69.1952C154.676 68.3924 154.37 67.7425 153.759 67.2455C153.147 66.7485 152.382 66.3471 151.465 66.0795C150.547 65.8119 149.286 65.506 147.661 65.1811C145.616 64.7606 143.953 64.3592 142.672 63.9386C141.391 63.5181 140.302 62.8682 139.403 61.9698C138.505 61.0714 138.046 59.8863 138.046 58.4145C138.046 57.0382 138.505 55.8531 139.403 54.8209C140.302 53.7887 141.563 53.005 143.188 52.4507C144.813 51.8964 146.686 51.6288 148.827 51.6288C151.866 51.6288 154.351 52.2022 156.282 53.3682C158.212 54.5151 159.302 56.1016 159.512 58.1086H153.835C153.739 57.2485 153.204 56.503 152.21 55.8722C151.216 55.2606 149.917 54.9547 148.292 54.9547C146.82 54.9547 145.616 55.2414 144.679 55.8149C143.743 56.3883 143.284 57.2103 143.284 58.2807C143.284 59.007 143.57 59.6187 144.163 60.0775C144.756 60.5553 145.501 60.9185 146.399 61.1861C147.298 61.4537 148.54 61.7596 150.089 62.0845C152.153 62.5241 153.854 62.9447 155.154 63.3843C156.454 63.8239 157.562 64.493 158.48 65.3913C159.397 66.2897 159.856 67.494 159.856 69.004C159.856 70.2082 159.436 71.3551 158.576 72.4256C157.715 73.496 156.473 74.3561 154.829 75.006C153.185 75.6559 151.255 75.9809 149.037 75.9809C146.935 75.9809 145.042 75.6942 143.36 75.1398H143.322Z" fill="black" stroke="black" stroke-width="0.75" stroke-miterlimit="10"/>
<path d="M171.038 55.0885V62.0845H181.857V65.2767H171.038V72.5785H183.214V75.7706H165.916V51.9155H183.214V55.1077H171.038V55.0885Z" fill="black" stroke="black" stroke-width="0.75" stroke-miterlimit="10"/>
<path d="M210.567 65.5252C211.733 66.6529 212.326 67.9145 212.326 69.329C212.326 70.5332 211.905 71.6227 211.083 72.5976C210.261 73.5724 209.057 74.337 207.509 74.8914C205.941 75.4457 204.126 75.7324 202.061 75.7324H189.541V51.9155H201.488C203.629 51.9155 205.444 52.1831 206.993 52.7374C208.522 53.2918 209.688 54.0181 210.472 54.9547C211.255 55.8722 211.638 56.9044 211.638 58.0513C211.638 59.4276 211.16 60.5553 210.204 61.4728C209.248 62.3903 207.948 63.0594 206.324 63.499C208.006 63.7284 209.439 64.3974 210.605 65.5252H210.567ZM194.645 61.9316H200.991C202.673 61.9316 203.992 61.6449 204.928 61.0523C205.884 60.4789 206.343 59.6378 206.343 58.5292C206.343 57.4205 205.865 56.6177 204.928 56.006C203.973 55.3944 202.673 55.1077 200.991 55.1077H194.645V61.9316ZM205.693 71.6036C206.687 70.9728 207.184 70.0745 207.184 68.9276C207.184 67.7807 206.649 66.8441 205.597 66.1559C204.546 65.4678 203.151 65.1237 201.411 65.1237H194.645V72.5594H201.583C203.323 72.5594 204.699 72.2344 205.693 71.6036Z" fill="black" stroke="black" stroke-width="0.75" stroke-miterlimit="10"/>
<path d="M29.456 28.8058H49.3544C50.0425 28.8058 50.6351 28.7294 51.132 28.5956C51.629 28.4426 52.0113 28.2133 52.3172 27.8501C52.623 27.506 52.8524 27.0473 52.9862 26.4547C53.1391 25.8622 53.1964 25.1358 53.1964 24.2565V13.4376H61.3393V25.3652C61.3393 25.7475 61.3393 26.1106 61.3011 26.4738C61.2628 26.837 61.2246 27.2002 61.1864 27.5634C62.1994 27.9839 63.3081 28.2897 64.4932 28.5C65.6783 28.7102 66.9017 28.8058 68.1823 28.8058H68.4308C69.0234 28.8058 69.4821 28.844 69.8453 28.9396C70.2085 29.0161 70.457 29.1499 70.629 29.341C70.8011 29.5322 70.8966 29.7616 70.954 30.0483C71.0113 30.335 71.0304 30.6599 71.0304 31.0613V33.2595C71.0304 33.7947 70.9922 34.2344 70.8966 34.5402C70.8202 34.8461 70.6673 35.0945 70.4761 35.2666C70.285 35.4386 70.0173 35.5342 69.6733 35.5915C69.3483 35.6489 68.9278 35.668 68.4117 35.668H68.0676C65.9841 35.668 64.2065 35.4386 62.7347 34.9607C61.2628 34.4829 59.963 33.8712 58.8353 33.0875C58.1089 33.8712 57.1914 34.502 56.1019 34.9607C55.0123 35.4195 53.6743 35.6489 52.1069 35.6489H29.4369M25.4419 41.7465C25.4419 41.1921 25.5375 40.6569 25.7477 40.1791C25.958 39.7012 26.2447 39.2807 26.6079 38.9175C26.9711 38.5543 27.3916 38.2676 27.8695 38.0573C28.3473 37.8471 28.8634 37.7515 29.4369 37.7515C30.0103 37.7515 30.5264 37.8471 31.0043 38.0573C31.4821 38.2676 31.9027 38.5543 32.2658 38.9175C32.629 39.2807 32.9157 39.7012 33.126 40.1791C33.3363 40.6569 33.4318 41.173 33.4318 41.7465C33.4318 42.3199 33.3363 42.836 33.126 43.3139C32.9157 43.7917 32.629 44.2123 32.2658 44.5754C31.9027 44.9386 31.4821 45.2253 31.0043 45.4356C30.5264 45.6459 30.0103 45.7414 29.4369 45.7414C28.8634 45.7414 28.3473 45.6459 27.8695 45.4356C27.3916 45.2253 26.9711 44.9386 26.6079 44.5754C26.2447 44.2123 25.958 43.7917 25.7477 43.3139C25.5375 42.836 25.4419 42.3199 25.4419 41.7465Z" fill="black"/>
<path d="M93.5093 28.8058C94.1974 28.8058 94.7899 28.7294 95.2869 28.5956C95.7839 28.4427 96.1853 28.2133 96.472 27.8501C96.7779 27.506 97.0072 27.0473 97.141 26.4547C97.2749 25.8622 97.3704 25.1358 97.3704 24.2565V13.3803H105.513V25.3461C105.513 25.6137 105.513 25.8813 105.513 26.1489C105.513 26.4165 105.494 26.665 105.475 26.9135C106.565 27.5252 107.769 27.9839 109.069 28.3089C110.368 28.6338 111.878 28.7867 113.58 28.7867H115.912V13.4567H123.844L124.112 35.668H114.115C111.821 35.668 109.795 35.3813 108.036 34.7887C106.278 34.1962 104.787 33.4507 103.525 32.495C102.818 33.4507 101.881 34.2153 100.715 34.7887C99.5495 35.3622 98.0968 35.6489 96.3191 35.6489H94.9429C92.8594 35.6489 90.967 35.3431 89.2849 34.7505C87.6028 34.1579 86.1501 33.3742 84.9076 32.4185C84.1813 33.3934 83.2256 34.1771 82.0596 34.7696C80.8936 35.3622 79.4217 35.6489 77.6441 35.6489H68.3734C67.8765 35.6489 67.4559 35.6298 67.1501 35.5724C66.8443 35.5151 66.5958 35.4195 66.4046 35.2475C66.2135 35.0755 66.0988 34.8461 66.0223 34.5211C65.9459 34.1962 65.9268 33.7757 65.9268 33.2404V31.0423C65.9268 30.6408 65.9268 30.2968 65.965 30.0292C66.0032 29.7616 66.0988 29.5131 66.2517 29.3219C66.4046 29.1308 66.6531 28.997 66.9781 28.9205C67.303 28.8441 67.7618 28.7867 68.3734 28.7867H74.8533C75.5414 28.7867 76.134 28.7103 76.631 28.5765C77.128 28.4235 77.5103 28.1942 77.8161 27.831C78.1219 27.4869 78.3513 27.0282 78.4851 26.4356C78.638 25.8431 78.6954 25.1167 78.6954 24.2374V16.1901H86.8382V26.0724C86.8382 26.3209 86.8191 26.5503 86.7809 26.8179C87.9278 27.4678 89.0746 27.9648 90.2024 28.2897C91.3302 28.6147 92.4388 28.7867 93.5093 28.7867V28.8058Z" fill="black"/>
<path d="M132.235 0H140.378V23.5493C140.378 24.6006 140.455 25.4608 140.608 26.1298C140.761 26.7988 140.99 27.3531 141.296 27.7354C141.602 28.1368 141.984 28.4044 142.462 28.5573C142.94 28.7103 143.475 28.7867 144.106 28.7867H145.635C146.227 28.7867 146.686 28.825 147.011 28.9205C147.336 28.997 147.585 29.1308 147.757 29.3219C147.929 29.5131 148.005 29.7425 148.043 30.0292C148.081 30.3159 148.082 30.6408 148.082 31.0423V33.2404C148.082 33.7757 148.043 34.2153 147.986 34.5211C147.929 34.827 147.795 35.0755 147.604 35.2475C147.412 35.4195 147.164 35.5151 146.858 35.5724C146.552 35.6298 146.132 35.6489 145.635 35.6489H142.118C140.359 35.6489 138.868 35.4004 137.626 34.9034C136.383 34.4064 135.351 33.6992 134.548 32.7817C133.745 31.8642 133.153 30.7747 132.771 29.494C132.388 28.2133 132.216 26.7988 132.216 25.2505V0H132.235Z" fill="black"/>
<path d="M150.28 9.86317C151.732 9.42353 153.204 9.04124 154.657 8.71629C156.11 8.39134 157.773 8.23842 159.608 8.23842C161.443 8.23842 163.029 8.50602 164.424 9.04124C165.82 9.57645 167.024 10.3219 168.018 11.2585C169.012 12.2143 169.834 13.342 170.446 14.661C171.057 15.9799 171.497 17.4135 171.745 18.9809C171.937 20.2807 172.128 21.504 172.319 22.6891C172.51 23.8742 172.739 24.9064 172.988 25.8239C173.236 26.7414 173.542 27.4678 173.886 28.003C174.23 28.5382 174.651 28.8249 175.148 28.8249H178.091C178.684 28.8249 179.143 28.8632 179.468 28.9587C179.793 29.0352 180.041 29.169 180.213 29.3601C180.385 29.5513 180.462 29.7807 180.5 30.0674C180.538 30.3541 180.538 30.6791 180.538 31.0805V33.2787C180.538 33.8139 180.5 34.2535 180.443 34.5593C180.385 34.8652 180.251 35.1137 180.06 35.2857C179.869 35.4577 179.621 35.5533 179.315 35.6107C179.009 35.668 178.588 35.6871 178.091 35.6871H145.482C144.985 35.6871 144.564 35.668 144.258 35.6107C143.953 35.5533 143.704 35.4577 143.513 35.2857C143.322 35.1137 143.207 34.8843 143.131 34.5593C143.054 34.2344 143.035 33.8139 143.035 33.2787V31.0805C143.035 30.6791 143.035 30.335 143.073 30.0674C143.112 29.7998 143.207 29.5513 143.36 29.3601C143.513 29.169 143.762 29.0352 144.086 28.9587C144.411 28.8823 144.87 28.8249 145.482 28.8249H166.087C165.82 28.2706 165.552 27.6016 165.304 26.8561C165.055 26.1107 164.864 25.327 164.749 24.5432C164.577 23.3773 164.386 22.2113 164.138 21.0261C163.889 19.8601 163.545 18.8088 163.048 17.8722C162.57 16.9356 161.94 16.1901 161.137 15.5976C160.334 15.005 159.302 14.7183 158.002 14.7183C157.562 14.7183 157.027 14.7565 156.396 14.8139C155.766 14.8712 155.116 14.9668 154.408 15.1006C153.701 15.2344 152.994 15.3873 152.268 15.5976C151.541 15.8078 150.853 16.0372 150.222 16.3239V9.86317H150.28Z" fill="black"/>
<path d="M199.863 36.0121C198.372 36.0121 197.053 35.8783 195.906 35.6298C194.76 35.3813 193.708 35.0563 192.772 34.6358C191.835 34.2344 191.032 33.7757 190.325 33.2596C189.618 32.7435 188.987 32.2465 188.433 31.7495C186.598 34.3682 183.902 35.668 180.347 35.668H177.881C177.384 35.668 176.964 35.6489 176.658 35.5916C176.352 35.5342 176.104 35.4386 175.912 35.2666C175.721 35.0946 175.607 34.8652 175.53 34.5402C175.454 34.2153 175.435 33.7948 175.435 33.2596V31.0614C175.435 30.66 175.435 30.3159 175.473 30.0483C175.511 29.7807 175.607 29.5322 175.76 29.3411C175.912 29.1499 176.161 29.0161 176.486 28.9396C176.811 28.8632 177.27 28.8058 177.881 28.8058H179.391C180.404 28.8058 181.303 28.5382 182.086 27.9839C182.851 27.4487 183.425 26.5885 183.769 25.4417C184.782 22.0392 185.967 19.2867 187.286 17.1841C188.605 15.0815 189.962 13.4759 191.357 12.329C192.752 11.1821 194.129 10.4366 195.467 10.0352C196.805 9.63381 198.028 9.46178 199.118 9.46178C200.666 9.46178 202.08 9.67204 203.342 10.0734C204.623 10.4749 205.75 11.0292 206.764 11.7173C207.777 12.4054 208.656 13.2083 209.401 14.1258C210.147 15.0433 210.759 16.0181 211.255 17.0503C211.752 18.0825 212.116 19.1529 212.345 20.2425C212.594 21.332 212.708 22.4024 212.708 23.4155C212.708 25.0402 212.421 26.6077 211.867 28.1177C211.313 29.6278 210.472 30.9658 209.401 32.1318C208.312 33.2978 206.974 34.2344 205.368 34.9417C203.763 35.6489 201.947 35.993 199.863 35.993V36.0121ZM205.12 23.3582C205.12 22.6318 204.986 21.8481 204.718 20.9879C204.451 20.1469 204.03 19.3441 203.495 18.6177C202.96 17.8914 202.272 17.2797 201.469 16.7827C200.666 16.2857 199.748 16.0372 198.697 16.0372C197.646 16.0372 196.767 16.3431 195.926 16.9547C195.084 17.5664 194.32 18.3883 193.67 19.3823C193.02 20.3763 192.447 21.5423 191.95 22.8229C191.453 24.1227 191.07 25.4417 190.803 26.7988C191.07 27.0664 191.491 27.3531 192.064 27.6398C192.638 27.9266 193.269 28.1942 193.976 28.4427C194.683 28.6912 195.429 28.8823 196.193 29.0352C196.958 29.1881 197.684 29.2646 198.372 29.2646C199.385 29.2646 200.322 29.1499 201.163 28.9396C202.004 28.7294 202.711 28.3853 203.304 27.9075C203.896 27.4296 204.355 26.8179 204.661 26.0724C204.967 25.327 205.139 24.4095 205.139 23.3199L205.12 23.3582Z" fill="black"/>
<path d="M31.8833 28.8058H11.9849C11.2968 28.8058 10.7042 28.7293 10.2072 28.5955C9.71026 28.4426 9.32797 28.2133 9.02213 27.8501C8.7163 27.506 8.48692 27.0473 8.35312 26.4547C8.2002 25.8621 8.14286 25.1358 8.14286 24.2565V16.2666H0V25.3652C0 25.6328 -7.12078e-09 26.0151 0.0382294 26.4738C0.114688 27.506 0.267606 28.4809 0.382294 29.0352C0.783702 30.8128 1.93058 32.3803 2.50402 33.1066C3.02012 33.6418 3.91851 34.4064 5.23742 34.9798C6.91952 35.7062 8.42958 35.7253 9.23239 35.668H31.9024" fill="black"/>
</svg>
