<svg width="334" height="158" viewBox="0 0 334 158" fill="none" xmlns="http://www.w3.org/2000/svg">
<path d="M58.5241 118.645H54.5337C53.1369 118.645 51.9399 119.777 51.9399 121.242V125.769C51.9399 127.167 53.0705 128.366 54.5337 128.366H58.5241C59.9208 128.366 61.118 127.234 61.118 125.769V121.242C61.0514 119.777 59.9208 118.645 58.5241 118.645Z" fill="black"/>
<path d="M93.3112 71.373H97.3016C98.6982 71.373 99.8953 70.2411 99.8953 68.7764V64.249C99.8953 62.8509 98.7648 61.6523 97.3016 61.6523H93.3112C91.9144 61.6523 90.7173 62.7842 90.7173 64.249V68.7764C90.7173 70.2411 91.9144 71.373 93.3112 71.373Z" fill="black"/>
<path d="M81.6069 71.373H85.5975C86.9941 71.373 88.1912 70.2411 88.1912 68.7764V64.249C88.1912 62.8509 87.0606 61.6523 85.5975 61.6523H81.6069C80.2103 61.6523 79.0132 62.7842 79.0132 64.249V68.7764C79.0132 70.2411 80.1439 71.373 81.6069 71.373Z" fill="black"/>
<path d="M115.658 71.373H119.649C121.045 71.373 122.242 70.2411 122.242 68.7764V64.249C122.242 62.8509 121.112 61.6523 119.649 61.6523H115.658C114.262 61.6523 113.064 62.7842 113.064 64.249V68.7764C113.131 70.2411 114.262 71.373 115.658 71.373Z" fill="black"/>
<path d="M127.363 71.373H131.353C132.75 71.373 133.947 70.2411 133.947 68.7764V64.249C133.947 62.8509 132.816 61.6523 131.353 61.6523H127.363C125.966 61.6523 124.769 62.7842 124.769 64.249V68.7764C124.836 70.2411 125.966 71.373 127.363 71.373Z" fill="black"/>
<path d="M202.981 101.8C203.248 100.069 203.447 98.1385 203.447 96.008V82.6255H194.203V97.2063C194.203 102.333 191.475 105.595 186.222 105.595C181.167 105.595 179.771 102.533 179.771 96.2077V82.9584H170.459V96.6072C170.459 103.132 165.671 104.93 161.681 104.93H156.825V82.9584H147.514V104.93H138.336H137.006H134.212V82.6255H124.901V104.93H108.607V90.3487C108.607 83.0249 102.688 77.0327 95.4384 77.0327H85.3958C78.1465 77.0327 72.2272 83.0249 72.2272 90.3487V104.93H70.2986H65.244H61.1205V82.6255H51.8094V104.93H46.8213H45.4912H38.3749V69.576V62.1855H29.0639V113.319H23.7432C19.8193 113.319 14.8977 112.719 12.6365 110.789C10.5747 109.058 9.84312 106.195 9.84312 102.267V93.012H0V103.398C0 108.791 1.13063 113.851 4.3895 116.914C8.44647 120.776 15.1637 122.64 23.0781 122.64H38.3749V114.317H45.5577H46.8879H65.244H70.2986H137.006H138.336H161.746C166.8 114.317 171.589 112.12 174.982 108.592C178.04 113.518 181.234 114.983 186.289 114.983C192.938 114.983 197.661 112.919 200.453 108.791C201.917 111.321 202.915 113.918 209.3 114.251V114.317H216.083V104.996H210.629C206.24 104.93 204.977 103.931 202.981 101.8ZM80.4077 90.3487C80.4077 87.4858 82.669 85.1556 85.4623 85.1556H95.5049C98.2983 85.1556 100.559 87.4858 100.559 90.3487V104.93H80.4742V90.3487H80.4077Z" fill="black"/>
<path d="M310.925 62.1855H301.615V104.93H296.426H295.097H283.524V114.251H295.097H296.426H310.925V71.5067V62.1855Z" fill="black"/>
<path d="M333.801 62.1855H324.489V114.317H333.801V62.1855Z" fill="black"/>
<path d="M283.388 52.1318H334V51.5325V43.3432V42.7441H314.313C312.053 41.7453 310.456 39.4151 310.456 36.8184V27.3641C310.456 23.7689 313.383 20.8394 316.974 20.8394H332.537V12.6501H316.974C308.859 12.6501 302.276 19.2415 302.276 27.3641V36.8184C302.276 38.9491 302.741 40.9465 303.539 42.7441H302.808H283.388V52.1318ZM216.149 42.8106H209.896H203.845V7.39033V0H194.534V51.133H189.212C185.288 51.133 181.565 50.5339 179.303 48.603C177.242 46.872 176.51 44.0091 176.51 40.0808V30.8263H167.198V41.2127C167.198 46.6056 168.396 51.932 171.655 54.9947C175.712 58.8563 180.633 60.4542 188.547 60.4542H203.845V52.1318H209.896H216.149V42.8106Z" fill="black"/>
<path d="M228.587 51.5993H220.473C220.473 42.5445 227.789 35.2207 236.834 35.2207V43.3435C232.244 43.41 228.587 47.0719 228.587 51.5993Z" fill="#74B744"/>
<path d="M279.335 51.5993H271.22C271.22 47.0719 267.562 43.3435 262.974 43.3435V35.2207C272.019 35.2207 279.335 42.6111 279.335 51.5993Z" fill="#74B744"/>
<path d="M263.437 121.774V113.651C267.958 113.651 271.683 109.99 271.683 105.396H279.796C279.796 114.45 272.482 121.774 263.437 121.774Z" fill="#74B744"/>
<path d="M237.302 121.774C228.257 121.774 220.942 114.45 220.942 105.396H229.055C229.055 109.923 232.713 113.651 237.302 113.651V121.774Z" fill="#74B744"/>
<path d="M0.332031 157.528V132.228H16.4269V136.422H4.85456V142.414H15.3628V146.675H4.85456V157.528H0.332031Z" fill="black"/>
<path d="M29.5275 139.95H33.9171V156.596C31.3898 157.461 29.461 157.86 26.4017 157.86C21.9457 157.86 18.4873 156.13 18.4873 150.67V139.95H22.8767V149.404C22.8767 152.601 23.8744 153.599 26.3352 153.599C27.3328 153.599 28.3305 153.533 29.5941 153.133V139.95H29.5275Z" fill="black"/>
<path d="M37.04 139.95H40.3654V133.559H44.755V139.95H51.4058V144.012H44.755V150.337C44.755 152.734 45.5531 153.399 47.8808 153.399H51.5387V157.461H47.4152C42.5603 157.461 40.4321 156.063 40.4321 151.867V143.945H37.1067V139.95H37.04Z" fill="black"/>
<path d="M65.9749 139.95H70.3643V156.596C67.8371 157.461 65.9083 157.86 62.849 157.86C58.3929 157.86 54.9346 156.13 54.9346 150.67V139.95H59.3241V149.404C59.3241 152.601 60.3217 153.599 62.7825 153.599C63.78 153.599 64.7778 153.533 66.0414 153.133V139.95H65.9749Z" fill="black"/>
<path d="M85.5955 143.879H83.1349C82.4697 143.879 80.3415 144.012 79.8095 144.212V157.528H75.4199V140.483C77.6146 140.017 80.4745 139.751 82.2701 139.751H85.5955V143.879Z" fill="black"/>
<path d="M97.7636 153.6C99.6259 153.6 101.954 152.934 102.885 152.068L104.813 155.93C102.951 156.929 100.623 157.861 97.1651 157.861C91.6448 157.861 87.5215 153.866 87.5215 148.606C87.5215 143.213 91.6448 139.352 96.8325 139.352C102.22 139.352 106.077 143.28 105.878 150.071H91.9774C92.5096 152.468 94.5047 153.6 97.2315 153.6H97.7636ZM92.177 146.475H101.355C100.89 144.345 99.1602 143.213 96.8325 143.213C94.4382 143.213 92.709 144.545 92.177 146.475Z" fill="black"/>
<path d="M139.462 152.267L143.586 135.623H148.574L142.721 157.528H136.469L132.812 139.418L129.154 157.528H122.902L117.049 135.623H121.971L126.094 152.267L129.619 135.623H135.871L139.462 152.267Z" fill="black"/>
<path d="M180.701 143.879H178.239C177.574 143.879 175.446 144.012 174.915 144.212V157.528H170.525V140.483C172.72 140.017 175.58 139.751 177.376 139.751H180.701V143.879Z" fill="black"/>
<path d="M184.156 157.528V132.228H188.545V148.606L195.063 139.951H200.251L193.667 148.673L200.651 157.528H195.396L188.545 148.872V157.528H184.156Z" fill="black"/>
<path d="M160.412 139.95H156.289C152.897 139.95 150.17 142.68 150.17 146.076V151.335C150.17 154.73 152.897 157.461 156.289 157.461H160.412C163.804 157.461 166.53 154.73 166.53 151.335V146.076C166.53 142.68 163.737 139.95 160.412 139.95ZM162.607 149.671C162.607 151.668 161.011 153.332 158.948 153.332H157.686C155.69 153.332 154.027 151.735 154.027 149.671V147.807C154.027 145.809 155.624 144.145 157.686 144.145H158.948C160.944 144.145 162.607 145.743 162.607 147.807V149.671Z" fill="black"/>
</svg>
