<svg width="284" height="175" viewBox="0 0 284 175" fill="none" xmlns="http://www.w3.org/2000/svg">
<path d="M105.589 175C99.7834 175 92.4234 172.384 83.9949 167.238C71.2965 159.48 57.3494 146.803 44.7195 131.541C32.0898 116.278 22.2495 100.209 17.0053 86.2881C11.4608 71.57 11.7354 60.7116 17.7735 55.7202C23.8115 50.7283 34.5316 52.4995 47.9596 60.703C60.6582 68.4612 74.6053 81.142 87.2348 96.4004C99.8649 111.663 109.705 127.732 114.949 141.653C120.494 156.371 120.219 167.23 114.181 172.221C111.933 174.078 109.035 175 105.589 175ZM26.4422 57.7484C24.1377 57.7484 22.2537 58.3145 20.8676 59.4594C16.6105 62.976 16.8594 72.1321 21.5499 84.5817C26.6096 98.0133 36.1666 113.593 48.4617 128.453C60.7569 143.312 74.2793 155.616 86.5267 163.104C97.8823 170.043 106.834 172.002 111.091 168.486C115.349 164.969 115.1 155.814 110.409 143.364C105.349 129.933 95.7924 114.352 83.4974 99.4926C71.2024 84.6328 57.684 72.3294 45.4319 64.8414C37.776 60.1626 31.2143 57.7484 26.4422 57.7484Z" fill="#6EC4E9"/>
<path d="M55.334 102.504C51.476 102.504 47.7082 102.165 44.0819 101.479C30.5981 98.9313 20.6935 91.9066 16.1917 81.7089C11.69 71.5066 13.1791 59.4642 20.3888 47.7953C27.4225 36.4137 39.1124 26.7002 53.3129 20.4433C67.513 14.1864 82.5762 12.1065 95.7255 14.5938C109.209 17.1412 119.114 24.1657 123.616 34.3638C128.117 44.5661 126.628 56.6083 119.414 68.2773C112.381 79.6589 100.69 89.3725 86.4903 95.6291C76.2037 100.162 65.4661 102.504 55.3253 102.504M84.5805 18.4148C75.328 18.4148 65.2045 20.5077 55.2742 24.8819C41.9619 30.7486 31.0445 39.7887 24.5215 50.3427C18.1744 60.6091 16.7968 71.0563 20.6334 79.753C24.4699 88.4502 33.1172 94.4757 44.9874 96.7184C57.1839 99.0259 71.2297 97.0614 84.5416 91.1993C97.8539 85.3327 108.776 76.2925 115.294 65.7341C121.642 55.4675 123.019 45.0207 119.182 36.3279C114.062 24.7276 100.647 18.4148 84.5805 18.4148Z" fill="#83B755"/>
<path d="M14.0712 140.133C12.3761 140.133 10.7797 139.807 9.29911 139.151C2.13664 135.973 -1.05621 125.595 0.308478 109.925C1.60021 95.1081 6.73711 76.9807 14.7793 58.879C22.8215 40.7771 32.8292 24.811 42.9613 13.9183C53.6771 2.39934 63.5218 -2.19365 70.6839 0.979838C77.8465 4.15761 81.0393 14.5358 79.6747 30.2059C78.383 45.0227 73.2461 63.1499 65.2038 81.2521C57.1615 99.3538 47.154 115.319 37.0219 126.212C28.5248 135.351 20.5685 140.133 14.0712 140.133ZM65.8264 4.83091C60.8352 4.83091 54.0077 9.16659 46.5232 17.2161C36.7472 27.7272 27.0486 43.2215 19.2209 60.843C11.3933 78.4645 6.39379 96.0431 5.14926 110.341C3.99485 123.592 6.2264 132.474 11.2732 134.712C16.3199 136.951 24.4136 132.65 33.4729 122.906C43.2488 112.395 52.9478 96.9006 60.7749 79.275C68.6026 61.6534 73.6024 44.0749 74.847 29.7771C76.0011 16.5256 73.7699 7.64419 68.7231 5.40556C67.8474 5.01532 66.8776 4.82662 65.8304 4.82662" fill="#313B8E"/>
<path d="M182.523 137.093C183.085 138.213 182.665 139.893 181.051 139.893H177.476C175.442 139.893 174.811 139.122 174.181 137.934L164.859 119.935C163.739 119.793 162.615 119.656 161.564 119.373V137.724C161.564 138.911 160.581 139.893 159.319 139.893H155.886C154.693 139.893 153.714 138.911 153.714 137.724V95.1391C153.714 93.9467 154.697 92.9688 155.886 92.9688H168.64C177.12 92.9688 182.309 98.5697 182.309 106.486C182.309 112.791 179.013 117.761 173.477 119.515L182.523 137.093ZM161.564 100.675V112.722H168.572C171.936 112.722 174.391 110.41 174.391 106.559C174.391 102.918 172.078 100.675 168.644 100.675H161.564Z" fill="black"/>
<path d="M217.386 133.446C217.948 133.446 218.369 133.935 218.369 134.634V137.996C218.369 138.626 218.09 139.047 217.67 139.326C216.76 140.025 215.356 140.235 214.095 140.235C211.781 140.235 209.117 139.043 208.349 136.384C206.524 139.116 203.512 140.586 199.585 140.586C192.015 140.586 187.882 135.406 187.882 125.808V117.124C187.882 107.458 192.02 102.346 199.585 102.346C202.95 102.346 205.683 103.396 207.503 105.498V104.936C207.435 104.027 208.134 103.324 209.327 103.324H213.112C214.305 103.324 215.283 104.374 215.283 105.566V131.482C215.283 132.953 215.772 133.442 216.755 133.442L217.386 133.446ZM207.361 114.397C207.361 111.875 205.327 109.705 201.542 109.705C197.757 109.705 195.654 111.948 195.654 116.219V126.726C195.654 130.997 197.689 133.24 201.542 133.24C205.396 133.24 207.361 130.997 207.361 128.476V114.397Z" fill="black"/>
<path d="M223.318 117.133C223.318 107.398 227.945 102.354 236.845 102.354C245.746 102.354 250.372 107.398 250.372 117.133V122.176C250.372 123.368 249.389 124.346 248.2 124.346H231.099V126.448C231.099 131.349 233.48 133.592 237.618 133.592C239.441 133.592 241.261 133.03 243.016 131.56C244.698 130.65 245.261 130.372 246.66 131.418L248.483 132.747C249.393 133.446 249.535 134.99 248.904 135.758C246.381 138.841 242.664 140.591 237.622 140.591C228.09 140.591 223.323 135.269 223.323 125.603V117.129L223.318 117.133ZM231.099 118.111L242.591 117.969V116.22C242.591 111.455 240.768 109.358 236.845 109.358C232.923 109.358 231.099 111.528 231.099 116.22V118.111Z" fill="black"/>
<path d="M281.274 88.0625C282.467 88.0625 283.445 89.0445 283.445 90.2324V137.719C283.445 138.907 282.463 139.889 281.274 139.889H277.841C276.648 139.889 275.669 138.907 275.669 137.719V137.65C273.846 139.61 271.185 140.592 267.889 140.592C260.319 140.592 256.187 135.412 256.187 125.814V117.13C256.187 107.464 260.323 102.352 267.889 102.352C271.185 102.352 273.846 103.334 275.669 105.293V90.2369C275.669 89.0445 276.652 88.0666 277.841 88.0666L281.274 88.0625ZM275.669 128.477V114.398C275.669 111.876 273.635 109.707 269.85 109.707C266.065 109.707 263.963 111.949 263.963 116.221V126.728C263.963 130.999 265.997 133.242 269.85 133.242C273.704 133.242 275.669 130.999 275.669 128.477Z" fill="black"/>
<path d="M238.83 55.5241H233.715C232.453 55.5241 231.754 54.4734 231.754 53.2126V51.8102C231.754 50.8282 232.526 49.9192 233.715 49.9192H234.414C235.114 49.9192 235.607 50.198 235.955 50.5496C236.796 51.3215 237.779 50.9699 238.337 50.4081L239.74 48.9372C240.371 48.3067 240.302 47.3247 239.672 46.7671C238.551 45.7165 236.517 44.5972 234.414 44.5972H233.715C229.578 44.5972 226.423 47.7492 226.423 51.8102V53.5602C226.423 54.1906 226.565 54.8897 226.775 55.5201H225.445C224.535 55.5201 223.973 56.4292 223.973 57.0596V59.3711C223.973 60.1432 224.535 60.8418 225.445 60.8418H238.83C239.74 60.8418 240.371 60.1432 240.371 59.3711V57.0596C240.371 56.4292 239.74 55.5241 238.83 55.5241Z" fill="black"/>
<path d="M238.195 62.2469H234.766C233.569 62.2469 232.59 63.2289 232.59 64.4128V70.4423C232.59 74.225 230.702 75.9057 226.917 75.9057H188.851C185.139 75.9057 183.32 74.225 182.543 70.6482L182.32 69.1299C182.303 67.7963 182.097 66.4369 181.728 65.0517C181.728 65.0517 181.719 65.0345 181.719 65.0173C180.316 59.8413 176.565 54.4462 171.076 49.7847H171.068C170.943 49.6775 170.819 49.5789 170.699 49.4716C169.802 48.7211 168.562 48.8112 167.763 49.5059C167.424 49.7761 167.163 50.1749 167.038 50.6594C166.875 51.303 166.69 51.946 166.484 52.5723C165.965 54.1887 166.244 55.9427 167.227 57.2768C167.377 57.4913 167.549 57.6967 167.746 57.8854C173.072 63.1606 175.02 68.6453 173.651 71.4804C172.398 74.0575 167.969 75.64 162.373 75.5029C161.863 75.4943 161.335 75.4599 160.807 75.4129C159.554 75.3228 158.267 75.1427 156.966 74.8938C155.55 74.6237 154.129 75.4043 153.674 76.7723C153.666 76.8067 153.657 76.832 153.649 76.8537C152.906 79.0449 153.781 81.3695 155.554 82.5701C156.129 82.9561 156.816 83.2394 157.567 83.3467C157.756 83.372 157.945 83.3978 158.137 83.4195H158.146C159.254 83.6507 160.374 83.7494 161.386 83.7494H169.514C173.578 83.7494 177.015 82.4886 179.401 80.4604C181.432 83.0462 184.448 83.7494 188.86 83.7494H226.788C236.74 83.7494 240.383 78.8481 240.383 70.4423V64.4128C240.383 63.2249 239.4 62.2469 238.207 62.2469H238.195Z" fill="black"/>
<path d="M254.884 36.0586C254.884 34.8665 253.902 33.8887 252.713 33.8887H249.267C248.074 33.8887 247.096 34.8708 247.096 36.0586L247.027 81.5855C247.027 82.7734 248.009 83.7553 249.271 83.7553H252.717C253.979 83.7553 254.962 82.7734 254.962 81.5855L254.893 36.0586H254.884Z" fill="black"/>
<path d="M280.237 44.121H276.873C275.68 44.121 274.701 45.1031 274.701 46.291V70.7268C274.701 75.3499 273.23 77.0993 269.586 77.0993H268.745C266.784 77.0993 265.239 76.6106 264.329 75.8386C263.209 74.9983 262.226 75.0666 261.385 76.1173L259.634 78.2872C258.862 79.338 259.145 80.7364 260.055 81.5079C262.578 83.7511 265.381 84.8702 268.813 84.8702H269.513C278.066 84.8702 282.477 79.9684 282.477 70.654V46.2867C282.477 45.0945 281.495 44.1167 280.233 44.1167L280.237 44.121Z" fill="black"/>
</svg>
