<svg width="44" height="58" viewBox="0 0 44 58" fill="none" xmlns="http://www.w3.org/2000/svg">
<path d="M43.9998 0H0.535156V11.5442H43.9998V0Z" fill="#0D283E"/>
<path d="M12.0793 14.6042H0.535156V26.1484H12.0793V14.6042Z" fill="#0D283E"/>
<path d="M27.9221 14.604H16.3779V26.1482H27.9221V14.604Z" fill="#0D283E"/>
<path d="M43.9992 14.604H32.4551V26.1482H43.9992V14.604Z" fill="#0D283E"/>
<path d="M11.967 30.0884H0.422852V41.6325H11.967V30.0884Z" fill="#0D283E"/>
<path d="M27.8098 30.0884H16.2656V41.6325H27.8098V30.0884Z" fill="#0D283E"/>
<path d="M43.8869 30.0884H32.3428V41.6325H43.8869V30.0884Z" fill="#0D283E"/>
<path d="M11.844 45.573H0.299805V57.1172H11.844V45.573Z" fill="#0D283E"/>
<path d="M27.6867 45.5728H16.1426V57.1169H27.6867V45.5728Z" fill="#0D283E"/>
<path d="M43.7639 45.5728H32.2197V57.1169H43.7639V45.5728Z" fill="#0D283E"/>
</svg>
