<svg width="57" height="57" viewBox="0 0 57 57" fill="none" xmlns="http://www.w3.org/2000/svg">
<path d="M48.6451 48.6558C43.2628 54.0382 36.1033 57 28.4945 57C20.8856 57 14.0019 54.1505 8.65014 48.9622C3.31884 43.8045 0.254893 36.8697 0.0199888 29.4447C0.0097756 29.1587 0.00976562 28.8524 0.00976562 28.5051C0.00976562 25.5841 0.459156 22.7142 1.32728 19.9362L8.4459 23.9398C8.09865 25.4411 7.93524 26.9731 7.93524 28.5051C7.93524 28.7298 7.93525 28.9443 7.94546 29.1485V29.1792C8.30292 40.332 17.3314 49.0745 28.5047 49.0745C39.6779 49.0745 49.0741 39.8418 49.0741 28.5051C49.0741 17.1684 39.8413 7.93567 28.5047 7.93567C27.565 7.93567 26.6152 7.99695 25.696 8.11951L22.3257 0.674069C24.3275 0.224687 26.4007 0 28.5047 0C36.1135 0 43.2628 2.96183 48.6554 8.3442C54.0377 13.7266 56.9996 20.886 56.9996 28.4949C56.9996 36.114 54.0377 43.2734 48.6554 48.6558H48.6451Z" fill="#0D283E"/>
<path d="M11.0091 17.6586L4.09473 13.7776C6.90336 9.13054 11.0704 5.31079 15.9421 2.9209L19.2001 10.1416C15.8604 11.8473 12.9904 14.4721 11.0193 17.6586H11.0091Z" fill="#0D283E"/>
</svg>
