<svg width="56" height="57" viewBox="0 0 56 57" fill="none" xmlns="http://www.w3.org/2000/svg">
<path d="M3.10019 28.169C4.14019 28.199 5.65019 28.349 7.35019 28.959C8.52019 29.379 9.82019 30.029 11.5402 31.379C15.0902 34.159 17.6802 37.719 19.0302 39.759C19.0302 39.759 23.1602 45.379 31.4902 50.719C34.8302 52.859 42.7102 57.029 56.0002 56.179V28.169H54.1902C49.5702 28.169 45.0802 26.519 41.6202 23.449C41.5902 23.429 41.5702 23.399 41.5402 23.379C38.3402 20.519 36.7102 18.039 35.3102 16.219C30.6202 10.139 24.8502 6.81904 22.1402 5.25904C18.7402 3.29904 11.3902 -0.200962 0.200195 0.00903784V28.179" fill="#0D283E"/>
</svg>
