<svg width="388" height="121" viewBox="0 0 388 121" fill="none" xmlns="http://www.w3.org/2000/svg">
<path d="M321.09 42.4609H286.87V75.9641H321.09V42.4609Z" fill="black"/>
<path d="M353.7 42.4609V0L328.66 13.8597C323.993 16.446 321.09 21.3598 321.078 26.685L321.102 42.4491H353.7V42.4609Z" fill="black"/>
<path d="M383.041 79.0565L353.735 62.8691L353.676 62.8927V86.8621H286.858V121H387.415V86.9327C387.415 83.7352 385.757 80.7493 383.041 79.0565Z" fill="black"/>
<path d="M38.1114 89.4824H0V96.2418H15.388V120.999H22.7352V96.2418H38.1114V89.4824Z" fill="black"/>
<path d="M50.2079 89.4824L31.9634 120.999H40.3803L44.048 114.616H64.3616L68.041 120.999H76.458L58.2134 89.4824H50.2314H50.2079ZM47.8451 107.974L54.1813 96.9354L60.5293 107.974H47.8451Z" fill="black"/>
<path d="M111.348 101.837H88.0137V89.4824H80.6665V120.999H88.0137V108.644H111.348V120.999H118.696V89.4824H111.348V101.837Z" fill="black"/>
<path d="M126.09 120.999H159.158V114.369H133.437V108.597H158.323V101.92H133.437V96.1596H159.158V89.4824H126.09V120.999Z" fill="black"/>
<path d="M174.134 89.4824H166.787V120.999H174.134V89.4824Z" fill="black"/>
<path d="M214.926 89.4824L201.948 104.13L188.958 89.4824H179.166L198.127 110.678V120.999H205.804V110.678L224.706 89.4824H214.926Z" fill="black"/>
<path d="M233.994 89.4824L215.749 120.999H224.166L227.834 114.616H248.147L251.827 120.999H260.232L241.987 89.4824H234.005H233.994ZM231.642 107.974L237.979 96.9354L244.327 107.974H231.642Z" fill="black"/>
<path d="M248.381 22.3638L242.504 28.2407L248.381 34.1176L254.258 28.2407L248.381 22.3638Z" fill="black"/>
<path d="M261.747 22.3521L255.87 28.229L261.747 34.1059L267.624 28.229L261.747 22.3521Z" fill="black"/>
<path d="M111.332 68.1519L105.456 74.0288L111.332 79.9057L117.209 74.0288L111.332 68.1519Z" fill="black"/>
<path d="M124.698 68.1524L118.821 74.0293L124.698 79.9062L130.575 74.0293L124.698 68.1524Z" fill="black"/>
<path d="M17.4345 7.63143L11.5576 13.5083L17.4345 19.3852L23.3114 13.5083L17.4345 7.63143Z" fill="black"/>
<path d="M30.8007 7.63192L24.9238 13.5088L30.8007 19.3857L36.6776 13.5088L30.8007 7.63192Z" fill="black"/>
<path d="M37.8998 63.7154H51.4539C58.4014 63.7154 64.62 60.4826 68.6639 55.4395C72.6726 60.4356 78.7972 63.6449 85.6741 63.7036H85.874H100.028C106.975 63.7036 113.194 60.4709 117.238 55.4278C121.282 60.4709 127.489 63.7036 134.448 63.7036H260.243V42.0382H250.569V54.0289H216.431V26.4504H168.515C158.453 26.4504 150.259 34.644 150.259 44.7067V54.0289H134.448C127.63 54.0289 122.081 48.4803 122.081 41.6621H112.406C112.406 48.4803 106.858 54.0289 100.039 54.0289H85.8857C79.0676 54.0289 73.519 48.4803 73.519 41.6621H63.8442C63.8442 48.4803 58.2956 54.0289 51.4656 54.0289H37.9115V26.0625H17.9272C8.04077 26.0625 0 34.1033 0 43.9896V63.7036H37.8998V63.7154ZM206.744 54.0406H188.17V36.1252H206.744V54.0406ZM159.922 44.7185C159.922 39.981 163.778 36.137 168.503 36.137H178.496V54.0524H159.922V44.7302V44.7185ZM28.225 54.0406H9.67478V44.0014C9.67478 39.452 13.3778 35.749 17.9272 35.749H28.225V54.0406Z" fill="black"/>
<path d="M76.693 26.5557H65.9485V23.9577C65.9485 23.8402 65.972 23.6756 66.1954 23.4758C66.4893 23.2171 66.7126 23.1819 66.8537 23.1819H73.4838V15.6113H67.5943C65.1491 15.6113 62.9979 16.5165 61.1993 18.3033C59.4125 20.0902 58.4955 22.2767 58.4955 24.7571L58.3662 33.9264H76.6813V26.544L76.693 26.5557Z" fill="black"/>
</svg>
