<svg width="58" height="68" viewBox="0 0 58 68" fill="none" xmlns="http://www.w3.org/2000/svg">
<path d="M17.3871 67.6445C10.9911 66.4892 4.94439 62.0485 2.25796 56.5347C0.392254 52.7049 -0.32525 48.6568 0.135223 44.5562C0.988686 36.956 4.92652 30.7322 11.0466 27.3069C14.2729 25.5011 18.8965 24.6046 22.3372 25.1153L24.3269 25.4098V31.4879L24.3279 37.5659L22.4453 37.4865C17.9091 37.2991 14.529 39.2408 12.7833 43.031C11.9477 44.8448 11.7364 48.0668 12.3239 50.0303C13.0483 52.452 15.1899 54.6386 17.7761 55.5976C18.6574 55.9258 19.6101 56.0508 21.2435 56.0448C23.277 56.0429 23.6511 55.9715 25.0802 55.2951C27.1503 54.3173 28.6607 52.8972 29.5489 51.0954C30.1245 49.9272 30.3101 49.1517 30.4897 47.1564C30.6128 45.7899 30.717 34.6206 30.7219 22.3356L30.7279 0H34.6052C36.7379 0 39.2992 0.068426 40.2966 0.152719L42.1107 0.305438V1.20291C42.1107 3.36378 43.375 7.50802 44.6711 9.5965C44.9946 10.1181 46.126 11.3974 47.1839 12.4396C49.2292 14.4537 50.955 15.4722 53.6116 16.2318C54.3946 16.4589 55.2203 16.7366 55.4466 16.8496C55.6728 16.9627 56.0996 17.0648 56.3953 17.0648C56.691 17.0668 57.1723 17.1333 57.4661 17.2126L58 17.3544V28.6288L56.9917 28.5207C51.5415 27.9327 47.1858 26.4799 43.7085 24.0889C41.9807 22.9009 41.8309 22.8305 41.9946 23.2827C42.0532 23.4473 42.0115 29.6572 41.9013 37.0869C41.7108 49.9658 41.677 50.6828 41.1769 52.4847C39.2546 59.4106 34.9396 64.5535 29.2582 66.6905C25.7838 67.9976 21.3368 68.3516 17.3831 67.6376L17.3851 67.6416L17.3871 67.6445Z" fill="black"/>
</svg>
