<svg width="547" height="479" viewBox="0 0 547 479" fill="none" xmlns="http://www.w3.org/2000/svg">
<path d="M545 2H15.1226C7.94291 2 2.12258 7.8203 2.12258 15V67.0197C2.12258 74.1994 7.94288 80.0197 15.1226 80.0197H532C539.18 80.0197 545 85.84 545 93.0197V145.469C545 152.633 539.203 158.447 532.039 158.468L15.0836 160.021C7.91913 160.043 2.12258 165.856 2.12258 173.021V226.712C2.12258 233.903 7.95998 239.727 15.1506 239.712L531.972 238.598C539.163 238.582 545 244.407 545 251.598V305.276C545 312.445 539.195 318.261 532.026 318.276L15.1166 319.304C7.93925 319.319 2.13151 325.147 2.14251 332.324L2.22521 386.248C2.23623 393.433 8.07287 399.246 15.2573 399.228L531.968 397.952C539.16 397.934 545 403.76 545 410.952V463.948C545 471.148 539.148 476.977 531.948 476.948L2 474.829" fill="white"/>
<path d="M545 2H15.1226C7.94291 2 2.12258 7.8203 2.12258 15V67.0197C2.12258 74.1994 7.94288 80.0197 15.1226 80.0197H532C539.18 80.0197 545 85.84 545 93.0197V145.469C545 152.633 539.203 158.447 532.039 158.468L15.0836 160.021C7.91913 160.043 2.12258 165.856 2.12258 173.021V226.712C2.12258 233.903 7.95998 239.727 15.1506 239.712L531.972 238.598C539.163 238.582 545 244.407 545 251.598V305.276C545 312.445 539.195 318.261 532.026 318.276L15.1166 319.304C7.93925 319.319 2.13151 325.147 2.14251 332.324L2.22521 386.248C2.23623 393.433 8.07287 399.246 15.2573 399.228L531.968 397.952C539.16 397.934 545 403.76 545 410.952V463.948C545 471.148 539.148 476.977 531.948 476.948L2 474.829" stroke="#6CDCE3" stroke-width="3" stroke-linecap="round" stroke-linejoin="round"/>
</svg>
